<?xml version="1.0" standalone="no"?>
<!DOCTYPE svg PUBLIC "-//W3C//DTD SVG 20010904//EN"
 "http://www.w3.org/TR/2001/REC-SVG-20010904/DTD/svg10.dtd">
<svg version="1.0" xmlns="http://www.w3.org/2000/svg"
 width="210.000000pt" height="210.000000pt" viewBox="0 0 210.000000 210.000000"
 preserveAspectRatio="xMidYMid meet">

<g transform="translate(0.000000,210.000000) scale(0.100000,-0.100000)"
fill="#000000" stroke="none">
<path d="M942 1869 c-28 -14 -51 -36 -67 -64 l-25 -42 0 -291 c0 -161 -2 -292
-5 -292 -10 0 -165 80 -165 85 0 3 11 22 25 43 53 81 55 182 4 270 -52 92
-143 139 -250 129 -212 -19 -314 -277 -170 -430 25 -27 25 -29 7 -39 -46 -26
-98 -85 -128 -146 -31 -63 -33 -72 -36 -205 -4 -112 -1 -146 12 -182 16 -41
75 -105 96 -105 6 0 10 -67 10 -169 0 -164 1 -170 22 -185 18 -13 57 -16 215
-16 180 0 194 1 213 20 19 19 20 33 20 340 l0 319 102 -49 c136 -67 191 -67
254 -1 28 31 30 31 126 31 54 0 98 -1 98 -3 0 -1 -47 -132 -105 -291 -58 -158
-105 -301 -105 -317 0 -33 30 -54 65 -45 27 7 28 10 168 396 76 210 96 256
112 258 18 2 33 -32 129 -295 60 -164 115 -310 123 -325 17 -36 57 -46 83 -23
11 10 20 26 20 35 0 9 -47 145 -105 301 -58 156 -105 290 -105 297 0 9 37 12
154 12 85 0 167 5 183 11 42 15 92 68 103 109 6 20 10 185 10 383 0 290 -3
354 -15 384 -21 50 -42 72 -90 94 -37 17 -75 19 -490 19 -438 0 -451 -1 -493
-21z m958 -109 c19 -19 20 -33 20 -368 0 -298 -2 -351 -16 -370 l-15 -22 -390
0 -389 0 70 140 c38 77 70 150 70 164 0 31 -22 48 -57 44 -25 -3 -35 -17 -90
-123 -34 -66 -64 -124 -65 -128 -2 -5 -20 -1 -41 9 l-37 18 0 310 c0 274 2
312 17 328 15 17 43 18 460 18 430 0 444 -1 463 -20z m-1340 -182 c76 -52 97
-123 58 -198 -28 -54 -75 -83 -133 -83 -118 0 -192 127 -133 227 43 73 142 99
208 54z m233 -496 c109 -53 203 -102 209 -109 14 -17 -8 -53 -32 -53 -11 0
-79 29 -150 65 -128 64 -174 77 -198 53 -9 -9 -12 -102 -12 -355 l0 -343 -125
0 -125 0 0 160 c0 147 -2 162 -20 180 -11 11 -29 20 -40 20 -11 0 -29 9 -40
20 -18 18 -20 33 -20 139 0 78 5 133 14 159 41 116 147 177 286 166 44 -4 95
-25 253 -102z"/>
<path d="M1102 1638 c-18 -18 -14 -63 6 -81 16 -15 54 -17 328 -17 264 0 313
2 332 16 27 18 29 55 4 77 -17 15 -55 17 -338 17 -236 0 -323 -3 -332 -12z"/>
<path d="M1394 1415 c-15 -23 -15 -27 0 -50 22 -34 41 -37 215 -33 137 3 154
5 167 22 18 26 18 51 -2 70 -13 13 -45 16 -189 16 l-175 0 -16 -25z"/>
<path d="M1394 1205 c-15 -23 -15 -27 0 -50 l16 -25 180 0 180 0 12 25 c8 19
8 31 0 50 l-12 25 -180 0 -180 0 -16 -25z"/>
</g>
</svg>
