<svg version="1.0" xmlns="http://www.w3.org/2000/svg"
 width="500.000000pt" height="196.000000pt" viewBox="0 0 500.000000 196.000000"
 preserveAspectRatio="xMidYMid meet">

<g transform="translate(0.000000,196.000000) scale(0.100000,-0.100000)"
fill="#fefefe" stroke="none">
<path d="M1185 1878 c-26 -114 -85 -390 -85 -396 0 -9 149 -56 155 -50 4 5
155 396 155 402 0 6 -190 66 -208 66 -7 0 -14 -10 -17 -22z"/>
<path d="M3360 1005 l0 -885 135 0 135 0 0 141 0 140 31 39 c18 22 35 37 39
35 4 -3 54 -84 110 -180 l102 -175 164 0 c90 0 164 2 164 6 0 3 -79 120 -175
260 -104 151 -173 260 -168 267 3 7 34 42 66 80 l60 67 413 0 414 0 0 545 0
545 -745 0 -745 0 0 -885z m1280 335 l0 -340 -384 0 -384 0 -105 -157 c-57
-87 -112 -171 -120 -188 -15 -28 -16 11 -17 498 l0 527 505 0 505 0 0 -340z"/>
<path d="M3920 1345 l0 -45 45 0 45 0 0 45 0 45 -45 0 -45 0 0 -45z"/>
<path d="M4140 1345 l0 -45 45 0 45 0 0 45 0 45 -45 0 -45 0 0 -45z"/>
<path d="M4360 1345 l0 -45 45 0 45 0 0 45 0 45 -45 0 -45 0 0 -45z"/>
<path d="M58 1268 c22 -40 108 -200 191 -354 l151 -282 0 -226 0 -226 125 0
125 0 0 227 0 227 188 344 c103 190 189 349 190 354 2 4 -55 8 -127 8 l-130 0
-121 -235 c-67 -129 -125 -233 -128 -231 -4 2 -59 108 -122 235 l-115 231
-133 0 -133 0 39 -72z"/>
<path d="M1340 1220 l0 -120 160 0 160 0 2 -487 3 -488 138 -3 137 -3 0 491 0
490 160 0 160 0 0 120 0 120 -460 0 -460 0 0 -120z"/>
<path d="M2977 1333 c-4 -3 -7 -278 -7 -610 l0 -603 135 0 135 0 0 610 0 610
-128 0 c-71 0 -132 -3 -135 -7z"/>
<path d="M2315 1006 c-84 -16 -185 -53 -185 -68 0 -8 41 -159 45 -166 1 -1 16
5 34 14 93 47 260 60 317 25 28 -17 64 -84 52 -96 -1 -1 -50 -8 -108 -14 -182
-19 -295 -71 -357 -164 -42 -63 -57 -138 -44 -213 25 -132 125 -214 264 -216
116 -1 174 17 233 74 35 33 38 31 48 -24 l7 -38 117 0 118 0 -3 287 c-2 159
-8 313 -14 343 -24 119 -90 200 -195 240 -75 28 -228 35 -329 16z m275 -528
c0 -110 -56 -178 -147 -178 -55 0 -78 12 -98 50 -20 39 -19 69 5 107 23 39 62
60 132 72 111 18 108 20 108 -51z"/>
</g>
</svg>
